# xmcd
#
# Track frame offsets:
#	150
#	18561
#	39962
#	60699
#	83350
#	99524
#	119139
#	136616
#	155439
#	175088
#	203007
#	221516
#	239947
#	256447
#	275526
#
# Disc length: 3907 seconds
#
# Revision: 1
# Processed by: cddbd v1.5.2PL0 Copyright (c) Steve Scherf et al.
# Submitted via: audiograbber 1.83.01
#
DISCID=cf0f410f
DTITLE=Best Of Rock - Poser Rock
DYEAR=1900
DGENRE=Rock
TTITLE0=Europe - Let The Good Times Rock
TTITLE1=Alice Cooper - Feed My Frankenstein
TTITLE2=Firehouse - Rock You Tonight
TTITLE3=Poison - Come Hell Or High Water
TTITLE4=Beau Nasty - Gimme Lovin'
TTITLE5=Danger Danger - Monkey Business
TTITLE6=Lita Ford - What Do Ya Know About Love
TTITLE7=Britny Fox - Hair Of The Dog
TTITLE8=Giant - Thunder And Lightning
TTITLE9=Golden Earring - Candy's Going Bad
TTITLE10=UFO - Shoot Shoot
TTITLE11=MSG - McAuley Schenker Group - Rock'til You're Crazy
TTITLE12=Scorpions - We Let It Rock (You Let It Roll)
TTITLE13=Heart - Sleep Alone
TTITLE14=Katmandu - The Way You Make Me Feel
EXTD=
EXTT0=
EXTT1=
EXTT2=
EXTT3=
EXTT4=
EXTT5=
EXTT6=
EXTT7=
EXTT8=
EXTT9=
EXTT10=
EXTT11=
EXTT12=
EXTT13=
EXTT14=
PLAYORDER=
